<mxfile host="Electron" modified="2023-11-16T17:16:23.545Z" agent="Mozilla/5.0 (Macintosh; Intel Mac OS X 10_15_7) AppleWebKit/537.36 (KHTML, like Gecko) draw.io/22.0.3 Chrome/114.0.5735.289 Electron/25.8.4 Safari/537.36" etag="r-boI4hTdT2R6S_-YBs1" version="22.0.3" type="device">
  <diagram name="Страница — 1" id="U_abkY4V6mh18grx3fAO">
    <mxGraphModel dx="1808" dy="743" grid="1" gridSize="10" guides="1" tooltips="1" connect="1" arrows="1" fold="1" page="1" pageScale="1" pageWidth="827" pageHeight="1169" math="0" shadow="0">
      <root>
        <mxCell id="0" />
        <mxCell id="1" parent="0" />
        <mxCell id="o4MpwzEzb3GZ10dYCDe6-4" value="Minikube cluster" style="verticalAlign=top;align=center;spacingTop=8;spacingLeft=2;spacingRight=12;shape=cube;size=10;direction=south;fontStyle=4;html=1;whiteSpace=wrap;" vertex="1" parent="1">
          <mxGeometry x="70" y="150" width="740" height="490" as="geometry" />
        </mxCell>
        <mxCell id="o4MpwzEzb3GZ10dYCDe6-1" value="lab4" style="shape=umlFrame;whiteSpace=wrap;html=1;pointerEvents=0;" vertex="1" parent="1">
          <mxGeometry x="-60" y="140" width="910" height="530" as="geometry" />
        </mxCell>
        <mxCell id="o4MpwzEzb3GZ10dYCDe6-6" style="edgeStyle=orthogonalEdgeStyle;rounded=0;orthogonalLoop=1;jettySize=auto;html=1;dashed=1;" edge="1" parent="1" source="o4MpwzEzb3GZ10dYCDe6-2" target="o4MpwzEzb3GZ10dYCDe6-5">
          <mxGeometry relative="1" as="geometry" />
        </mxCell>
        <mxCell id="o4MpwzEzb3GZ10dYCDe6-7" value="port-forward" style="edgeLabel;html=1;align=center;verticalAlign=middle;resizable=0;points=[];" vertex="1" connectable="0" parent="o4MpwzEzb3GZ10dYCDe6-6">
          <mxGeometry x="0.269" y="3" relative="1" as="geometry">
            <mxPoint as="offset" />
          </mxGeometry>
        </mxCell>
        <mxCell id="o4MpwzEzb3GZ10dYCDe6-2" value="User" style="shape=umlActor;verticalLabelPosition=bottom;verticalAlign=top;html=1;" vertex="1" parent="1">
          <mxGeometry x="-50" y="355" width="30" height="60" as="geometry" />
        </mxCell>
        <mxCell id="o4MpwzEzb3GZ10dYCDe6-11" style="edgeStyle=orthogonalEdgeStyle;rounded=0;orthogonalLoop=1;jettySize=auto;html=1;" edge="1" parent="1" source="o4MpwzEzb3GZ10dYCDe6-5" target="o4MpwzEzb3GZ10dYCDe6-8">
          <mxGeometry relative="1" as="geometry" />
        </mxCell>
        <mxCell id="o4MpwzEzb3GZ10dYCDe6-20" value="localhost:3000" style="edgeLabel;html=1;align=center;verticalAlign=middle;resizable=0;points=[];" vertex="1" connectable="0" parent="o4MpwzEzb3GZ10dYCDe6-11">
          <mxGeometry x="-0.2333" y="-2" relative="1" as="geometry">
            <mxPoint as="offset" />
          </mxGeometry>
        </mxCell>
        <mxCell id="o4MpwzEzb3GZ10dYCDe6-5" value="SVC&lt;br&gt;frontend-l4:3000" style="shape=module;align=left;spacingLeft=20;align=center;verticalAlign=top;whiteSpace=wrap;html=1;" vertex="1" parent="1">
          <mxGeometry x="90" y="360" width="100" height="50" as="geometry" />
        </mxCell>
        <mxCell id="o4MpwzEzb3GZ10dYCDe6-10" style="edgeStyle=orthogonalEdgeStyle;rounded=0;orthogonalLoop=1;jettySize=auto;html=1;startArrow=classic;startFill=1;" edge="1" parent="1" source="o4MpwzEzb3GZ10dYCDe6-8" target="o4MpwzEzb3GZ10dYCDe6-9">
          <mxGeometry relative="1" as="geometry" />
        </mxCell>
        <mxCell id="o4MpwzEzb3GZ10dYCDe6-19" value="IPAM" style="edgeLabel;html=1;align=center;verticalAlign=middle;resizable=0;points=[];" vertex="1" connectable="0" parent="o4MpwzEzb3GZ10dYCDe6-10">
          <mxGeometry x="-0.2" y="2" relative="1" as="geometry">
            <mxPoint as="offset" />
          </mxGeometry>
        </mxCell>
        <mxCell id="o4MpwzEzb3GZ10dYCDe6-17" style="edgeStyle=orthogonalEdgeStyle;rounded=0;orthogonalLoop=1;jettySize=auto;html=1;" edge="1" parent="1" source="o4MpwzEzb3GZ10dYCDe6-8" target="o4MpwzEzb3GZ10dYCDe6-13">
          <mxGeometry relative="1" as="geometry">
            <Array as="points">
              <mxPoint x="470" y="385" />
              <mxPoint x="470" y="250" />
            </Array>
          </mxGeometry>
        </mxCell>
        <mxCell id="o4MpwzEzb3GZ10dYCDe6-18" style="edgeStyle=orthogonalEdgeStyle;rounded=0;orthogonalLoop=1;jettySize=auto;html=1;" edge="1" parent="1" source="o4MpwzEzb3GZ10dYCDe6-8" target="o4MpwzEzb3GZ10dYCDe6-14">
          <mxGeometry relative="1" as="geometry">
            <Array as="points">
              <mxPoint x="470" y="385" />
              <mxPoint x="470" y="510" />
            </Array>
          </mxGeometry>
        </mxCell>
        <mxCell id="o4MpwzEzb3GZ10dYCDe6-8" value="deployment" style="shape=module;align=left;spacingLeft=20;align=center;verticalAlign=top;whiteSpace=wrap;html=1;" vertex="1" parent="1">
          <mxGeometry x="310" y="360" width="100" height="50" as="geometry" />
        </mxCell>
        <mxCell id="o4MpwzEzb3GZ10dYCDe6-9" value="Calico Config" style="shape=module;align=left;spacingLeft=20;align=center;verticalAlign=top;whiteSpace=wrap;html=1;" vertex="1" parent="1">
          <mxGeometry x="310" y="520" width="100" height="50" as="geometry" />
        </mxCell>
        <mxCell id="o4MpwzEzb3GZ10dYCDe6-13" value="a01" style="verticalAlign=top;align=center;spacingTop=8;spacingLeft=2;spacingRight=12;shape=cube;size=10;direction=south;fontStyle=4;html=1;whiteSpace=wrap;" vertex="1" parent="1">
          <mxGeometry x="560" y="190" width="180" height="120" as="geometry" />
        </mxCell>
        <mxCell id="o4MpwzEzb3GZ10dYCDe6-14" value="a02" style="verticalAlign=top;align=center;spacingTop=8;spacingLeft=2;spacingRight=12;shape=cube;size=10;direction=south;fontStyle=4;html=1;whiteSpace=wrap;" vertex="1" parent="1">
          <mxGeometry x="560" y="440" width="180" height="120" as="geometry" />
        </mxCell>
        <mxCell id="o4MpwzEzb3GZ10dYCDe6-15" value="&lt;span style=&quot;background-color: rgb(255, 255, 255);&quot;&gt;pod&lt;br&gt;&lt;/span&gt;&lt;div style=&quot;&quot;&gt;&lt;pre style=&quot;font-family: &amp;quot;JetBrains Mono&amp;quot;, monospace;&quot;&gt;&lt;font style=&quot;background-color: rgb(255, 255, 255);&quot;&gt;192.168.1.194&lt;/font&gt;&lt;/pre&gt;&lt;/div&gt;" style="shape=module;align=left;spacingLeft=20;align=center;verticalAlign=top;whiteSpace=wrap;html=1;" vertex="1" parent="1">
          <mxGeometry x="590" y="240" width="100" height="50" as="geometry" />
        </mxCell>
        <mxCell id="o4MpwzEzb3GZ10dYCDe6-16" value="&lt;span style=&quot;background-color: rgb(255, 255, 255);&quot;&gt;pod&lt;br&gt;&lt;/span&gt;&lt;div style=&quot;&quot;&gt;&lt;pre style=&quot;font-family: &amp;quot;JetBrains Mono&amp;quot;, monospace;&quot;&gt;&lt;font style=&quot;background-color: rgb(255, 255, 255);&quot;&gt;192.168.0.66&lt;/font&gt;&lt;/pre&gt;&lt;/div&gt;" style="shape=module;align=left;spacingLeft=20;align=center;verticalAlign=top;whiteSpace=wrap;html=1;" vertex="1" parent="1">
          <mxGeometry x="590" y="490" width="100" height="50" as="geometry" />
        </mxCell>
        <mxCell id="o4MpwzEzb3GZ10dYCDe6-22" value="&lt;div style=&quot;&quot;&gt;&lt;pre style=&quot;font-family: &amp;quot;JetBrains Mono&amp;quot;, monospace;&quot;&gt;&lt;span style=&quot;background-color: rgb(255, 255, 255);&quot;&gt;192.168.1.0&lt;/span&gt;&lt;/pre&gt;&lt;/div&gt;" style="text;align=center;fontStyle=1;verticalAlign=middle;spacingLeft=3;spacingRight=3;strokeColor=none;rotatable=0;points=[[0,0.5],[1,0.5]];portConstraint=eastwest;html=1;" vertex="1" parent="1">
          <mxGeometry x="610" y="310" width="80" height="26" as="geometry" />
        </mxCell>
        <mxCell id="o4MpwzEzb3GZ10dYCDe6-23" value="&lt;div style=&quot;&quot;&gt;&lt;pre style=&quot;font-family: &amp;quot;JetBrains Mono&amp;quot;, monospace;&quot;&gt;&lt;span style=&quot;background-color: rgb(255, 255, 255);&quot;&gt;192.168.0.0&lt;/span&gt;&lt;/pre&gt;&lt;/div&gt;" style="text;align=center;fontStyle=1;verticalAlign=middle;spacingLeft=3;spacingRight=3;strokeColor=none;rotatable=0;points=[[0,0.5],[1,0.5]];portConstraint=eastwest;html=1;" vertex="1" parent="1">
          <mxGeometry x="610" y="560" width="80" height="26" as="geometry" />
        </mxCell>
      </root>
    </mxGraphModel>
  </diagram>
</mxfile>
